<svg width="16" height="16" viewBox="0 0 16 16" fill="none" xmlns="http://www.w3.org/2000/svg">
<path fill-rule="evenodd" clip-rule="evenodd" d="M12.7556 3.1244L7.10665 8.77331C6.86365 9.01628 6.46968 9.01628 6.22669 8.77331C5.98369 8.53033 5.9837 8.13634 6.22669 7.89336L11.8756 2.24444H10.2667C9.92301 2.24444 9.64445 1.96586 9.64445 1.62222C9.64445 1.27858 9.92301 1 10.2667 1H13.3778C13.7214 1 14 1.27858 14 1.62222V4.73333C14 5.07697 13.7214 5.35556 13.3778 5.35556C13.0341 5.35556 12.7556 5.07697 12.7556 4.73333V3.1244ZM6.07881 1.93333C6.4224 1.93333 6.70103 2.21191 6.70103 2.55556C6.70103 2.8992 6.4224 3.17778 6.07881 3.17778H2.86667C2.52303 3.17778 2.24444 3.45636 2.24444 3.8V12.1333C2.24444 12.477 2.52303 12.7556 2.86667 12.7556H11.2C11.5437 12.7556 11.8222 12.477 11.8222 12.1317L11.805 8.91285C11.8041 8.5692 12.0819 8.28982 12.4255 8.28889C12.7691 8.28794 13.0485 8.56572 13.0494 8.90937L13.0667 12.1333C13.0667 13.1643 12.231 14 11.2 14H2.86667C1.83574 14 1 13.1643 1 12.1333V3.8C1 2.76907 1.83574 1.93333 2.86667 1.93333H6.07881Z" fill="#DADADA"/>
</svg>
