<svg width="16" height="16" viewBox="0 0 16 16" fill="none" xmlns="http://www.w3.org/2000/svg">
<path d="M12.293 2.29247C12.6835 1.90229 13.3166 1.90212 13.7071 2.29247C14.0975 2.68289 14.0973 3.31599 13.7071 3.70654L9.41313 7.99951L13.7071 12.2935C14.0972 12.684 14.0975 13.3171 13.7071 13.7075C13.3167 14.0976 12.6835 14.0975 12.293 13.7075L7.99907 9.41357L3.70707 13.7065C3.31655 14.0971 2.68354 14.0971 2.29301 13.7065C1.90255 13.316 1.90251 12.683 2.29301 12.2925L6.585 7.99951L2.29301 3.70654C1.90255 3.31601 1.90251 2.68298 2.29301 2.29247C2.68353 1.90219 3.31662 1.90209 3.70707 2.29247L7.99907 6.58544L12.293 2.29247Z" fill="#FF4443"/>
</svg>
