<svg width="50" height="50" viewBox="0 0 50 50" fill="none" xmlns="http://www.w3.org/2000/svg">
<rect x="10" y="10" width="2" height="2" fill="#FFC53B"/>
<rect x="14" y="10" width="2" height="2" fill="#FFC53B"/>
<rect x="18" y="10" width="2" height="2" fill="#FFC53B"/>
<rect x="22" y="10" width="2" height="2" fill="#FFC53B"/>
<rect x="10" y="15" width="2" height="4" fill="#FFC53B"/>
<rect x="14" y="15" width="2" height="4" fill="#FFC53B"/>
<rect x="18" y="15" width="2" height="4" fill="#FFC53B"/>
<rect x="22" y="15" width="2" height="4" fill="#FFC53B"/>
<rect x="10" y="21" width="2" height="4" fill="#FFC53B"/>
<rect x="14" y="21" width="2" height="4" fill="#FFC53B"/>
<rect x="18" y="21" width="2" height="4" fill="#FFC53B"/>
<rect x="22" y="21" width="2" height="4" fill="#FFC53B"/>
<rect x="10" y="27" width="2" height="4" fill="#FFC53B"/>
<rect x="10" y="33" width="2" height="4" fill="#FFC53B"/>
<rect x="14" y="27" width="2" height="4" fill="#FFC53B"/>
<rect x="18" y="27" width="2" height="4" fill="#FFC53B"/>
<rect x="22" y="27" width="2" height="4" fill="#FFC53B"/>
<rect x="14" y="33" width="2" height="4" fill="#FFC53B"/>
<rect x="18" y="33" width="2" height="4" fill="#FFC53B"/>
<rect x="22" y="33" width="2" height="4" fill="#FFC53B"/>
<rect x="22" y="39" width="2" height="5" fill="#FFC53B"/>
<rect x="10" y="39" width="2" height="5" fill="#FFC53B"/>
<rect x="32" y="18" width="2" height="2" fill="#FFC53B"/>
<rect x="36" y="18" width="2" height="2" fill="#FFC53B"/>
<rect x="40" y="18" width="2" height="2" fill="#FFC53B"/>
<rect x="32" y="22" width="2" height="2" fill="#FFC53B"/>
<rect x="32" y="26" width="2" height="2" fill="#FFC53B"/>
<rect x="32" y="30" width="2" height="2" fill="#FFC53B"/>
<rect x="32" y="34" width="2" height="2" fill="#FFC53B"/>
<rect x="32" y="38" width="2" height="2" fill="#FFC53B"/>
<rect x="32" y="42" width="2" height="2" fill="#FFC53B"/>
<rect x="36" y="22" width="2" height="2" fill="#FFC53B"/>
<rect x="36" y="26" width="2" height="2" fill="#FFC53B"/>
<rect x="36" y="30" width="2" height="2" fill="#FFC53B"/>
<rect x="36" y="34" width="2" height="2" fill="#FFC53B"/>
<rect x="36" y="38" width="2" height="2" fill="#FFC53B"/>
<rect x="36" y="42" width="2" height="2" fill="#FFC53B"/>
<rect x="40" y="42" width="2" height="2" fill="#FFC53B"/>
<rect x="40" y="38" width="2" height="2" fill="#FFC53B"/>
<rect x="40" y="34" width="2" height="2" fill="#FFC53B"/>
<rect x="40" y="30" width="2" height="2" fill="#FFC53B"/>
<rect x="40" y="26" width="2" height="2" fill="#FFC53B"/>
<rect x="40" y="22" width="2" height="2" fill="#FFC53B"/>
<path d="M26 6H30V14H46V48H4V6H8V2H26V6ZM10 8H6V46H15V39H19V46H28V8H24V4H10V8ZM30 46H44V16H30V46Z" fill="white"/>
</svg>
