<svg width="15" height="16" viewBox="0 0 15 16" fill="none" xmlns="http://www.w3.org/2000/svg">
<path d="M6.75 0C8.61384 0 10.18 1.27477 10.624 3C10.7063 3.31962 10.75 3.6547 10.75 4H9.25C9.24584 2.62329 8.25416 1.50879 6.75 1.50879C5.24584 1.50879 4.25416 2.62329 4.25 4V5.75H11.5C12.3284 5.75 13 6.42157 13 7.25V13.25C13 14.0784 12.3284 14.75 11.5 14.75H2.5C1.67157 14.75 1 14.0784 1 13.25V7.25C1 6.42157 1.67157 5.75 2.5 5.75H2.75V4C2.75 1.79086 4.54086 0 6.75 0ZM4 7.25C3.17157 7.25 2.5 7.92157 2.5 8.75V11.75C2.5 12.5784 3.17157 13.25 4 13.25H10C10.8284 13.25 11.5 12.5784 11.5 11.75V8.75C11.5 7.92157 10.8284 7.25 10 7.25H4Z" fill="#1E97CC"/>
<path d="M7 10.5V12" stroke="#1E97CC" stroke-linecap="round"/>
<circle cx="7" cy="9.75" r="1.25" fill="#1E97CC"/>
</svg>
