<svg width="16" height="16" viewBox="0 0 16 16" fill="none" xmlns="http://www.w3.org/2000/svg">
<g transform="translate(-1.142857 -1.142857) scale(1.142857)">
<rect x="3" y="1" width="6" height="1" fill="#ff442a"/>
<rect x="1" y="2" width="8" height="1" fill="#ff442a"/>
<rect x="1" y="3" width="2" height="1" fill="#ff442a"/>
<rect x="8" y="3" width="1" height="1" fill="#ff442a"/>
<rect x="1" y="4" width="1" height="8" fill="#ff442a"/>
<rect x="11" y="4" width="1" height="1" fill="#ff442a"/>
<rect x="10" y="5" width="3" height="1" fill="#ff442a"/>
<rect x="6" y="6" width="8" height="1" fill="#ff442a"/>
<rect x="6" y="7" width="9" height="2" fill="#ff442a"/>
<rect x="6" y="9" width="8" height="1" fill="#ff442a"/>
<rect x="10" y="10" width="3" height="1" fill="#ff442a"/>
<rect x="11" y="11" width="1" height="1" fill="#ff442a"/>
<rect x="1" y="12" width="2" height="1" fill="#ff442a"/>
<rect x="8" y="12" width="1" height="1" fill="#ff442a"/>
<rect x="1" y="13" width="8" height="1" fill="#ff442a"/>
<rect x="3" y="14" width="6" height="1" fill="#ff442a"/>
</g>
</svg>
