<svg width="16" height="16" viewBox="0 0 16 16" fill="none" xmlns="http://www.w3.org/2000/svg">
  <path d="M2.25 1h7.5L13.75 6v8.5a1 1 0 0 1-1 1H3.25a1 1 0 0 1-1-1V1z"
        fill="#e4e4e0"/>
  <path d="M9.75 1v4.2c0 .44.36.8.8.8H13.75"
        fill="#d0d0cc"/>
  <path d="M2.25 1h7.5L13.75 6v8.5a1 1 0 0 1-1 1H3.25a1 1 0 0 1-1-1V1z"
        fill="none" stroke="#b8b8b4" stroke-width="0.75" stroke-linejoin="round"/>
  <path d="M9.75 1v4.2c0 .44.36.8.8.8H13.75"
        fill="none" stroke="#b8b8b4" stroke-width="0.75" stroke-linejoin="round"/>
  <!-- Glass: page-white fill (not dark disc); ring thickened inward like LM -->
  <circle cx="7.45" cy="7.55" r="3.8" fill="#ffffff" fill-opacity="0.95" stroke="#b07ae0" stroke-width="1.7"/>
  <path d="M10.45 10.55L13.55 14.1" stroke="#b07ae0" stroke-width="1.45" stroke-linecap="round"/>
</svg>
