<svg width="16" height="16" viewBox="0 0 16 16" fill="none" xmlns="http://www.w3.org/2000/svg">
<g transform="translate(0.000000 -1.142857) scale(1.142857)">
<rect x="2" y="1" width="8" height="1" fill="#e4e4e0"/>
<rect x="10" y="1" width="1" height="1" fill="#e4e4e0"/>
<rect x="1" y="2" width="2" height="1" fill="#e4e4e0"/>
<rect x="3" y="2" width="6" height="1" fill="#e4e4e0"/>
<rect x="9" y="2" width="2" height="1" fill="#e4e4e0"/>
<rect x="1" y="3" width="1" height="10" fill="#e4e4e0"/>
<rect x="2" y="3" width="1" height="1" fill="#e4e4e0"/>
<rect x="3" y="3" width="1" height="1" fill="#dbdedb"/>
<rect x="4" y="3" width="5" height="1" fill="#e4e4e0"/>
<rect x="9" y="3" width="3" height="1" fill="#e4e4e0"/>
<rect x="12" y="3" width="1" height="1" fill="#e4e4e0"/>
<rect x="2" y="4" width="5" height="2" fill="#e4e4e0"/>
<rect x="7" y="4" width="1" height="1" fill="#e0e1de"/>
<rect x="8" y="4" width="1" height="1" fill="#e4e4e0"/>
<rect x="9" y="4" width="4" height="1" fill="#e4e4e0"/>
<rect x="7" y="5" width="1" height="1" fill="#edb462"/>
<rect x="8" y="5" width="1" height="1" fill="#f0a336"/>
<rect x="9" y="5" width="1" height="1" fill="#ef9c2c"/>
<rect x="10" y="5" width="2" height="3" fill="#e4e4e0"/>
<rect x="12" y="5" width="1" height="8" fill="#e4e4e0"/>
<rect x="2" y="6" width="4" height="1" fill="#e4e4e0"/>
<rect x="6" y="6" width="1" height="1" fill="#efaa49"/>
<rect x="7" y="6" width="3" height="1" fill="#f3991a"/>
<rect x="2" y="7" width="3" height="1" fill="#e4e4e0"/>
<rect x="5" y="7" width="1" height="1" fill="#f0a740"/>
<rect x="6" y="7" width="1" height="1" fill="#f2991a"/>
<rect x="7" y="7" width="2" height="1" fill="#f3991a"/>
<rect x="9" y="7" width="1" height="1" fill="#f1a12f"/>
<rect x="2" y="8" width="1" height="1" fill="#e4e4e0"/>
<rect x="3" y="8" width="1" height="1" fill="#dcdfd9"/>
<rect x="4" y="8" width="1" height="1" fill="#f29d25"/>
<rect x="5" y="8" width="2" height="1" fill="#f3991a"/>
<rect x="7" y="8" width="1" height="1" fill="#f2991a"/>
<rect x="8" y="8" width="1" height="1" fill="#eeae52"/>
<rect x="9" y="8" width="3" height="1" fill="#e4e4e0"/>
<rect x="2" y="9" width="2" height="2" fill="#e4e4e0"/>
<rect x="4" y="9" width="1" height="1" fill="#664210"/>
<rect x="5" y="9" width="1" height="1" fill="#633f0b"/>
<rect x="6" y="9" width="1" height="1" fill="#f3991a"/>
<rect x="7" y="9" width="1" height="1" fill="#f1a02d"/>
<rect x="8" y="9" width="4" height="1" fill="#e4e4e0"/>
<rect x="4" y="10" width="1" height="1" fill="#676663"/>
<rect x="5" y="10" width="1" height="1" fill="#7e6238"/>
<rect x="6" y="10" width="1" height="1" fill="#eea439"/>
<rect x="7" y="10" width="5" height="1" fill="#e4e4e0"/>
<rect x="2" y="11" width="10" height="2" fill="#e4e4e0"/>
<rect x="1" y="13" width="2" height="1" fill="#e4e4e0"/>
<rect x="3" y="13" width="8" height="1" fill="#e4e4e0"/>
<rect x="11" y="13" width="2" height="1" fill="#e4e4e0"/>
<rect x="2" y="14" width="10" height="1" fill="#e4e4e0"/>
</g>
</svg>
