<svg width="16" height="16" viewBox="0 0 16 16" fill="none" xmlns="http://www.w3.org/2000/svg">
<path d="M10.8154 6.1582L12.4092 4.56738C11.4692 3.62477 10.1716 3.04211 8.73535 3.04199C5.8643 3.04219 3.54201 5.36425 3.54199 8.23535C3.54201 11.1065 5.8643 13.4285 8.73535 13.4287C10.5556 13.4286 12.1555 12.4952 13.083 11.0791L13.3564 10.6621L13.7744 10.9336L14.2266 11.2275L14.6475 11.501L14.3721 11.9209C13.1694 13.7552 11.0928 14.9706 8.73535 14.9707C5.01896 14.9705 2.00002 11.9518 2 8.23535C2.00002 4.51892 5.01896 1.5002 8.73535 1.5C10.5962 1.50012 12.2798 2.25958 13.498 3.48047L14.9756 2.00488V6.1582H10.8154Z" fill="#5C9351"/>
</svg>
