<svg width="32" height="16" viewBox="0 0 32 16" fill="none" xmlns="http://www.w3.org/2000/svg">
<g clip-path="url(#clip0_41_3)">
<path d="M24 0H8C3.58172 0 0 3.58172 0 8C0 12.4183 3.58172 16 8 16H24C28.4183 16 32 12.4183 32 8C32 3.58172 28.4183 0 24 0Z" fill="#141414"/>
<path d="M24.08 13.92C27.3937 13.92 30.08 11.2337 30.08 7.92C30.08 4.60629 27.3937 1.92 24.08 1.92C20.7663 1.92 18.08 4.60629 18.08 7.92C18.08 11.2337 20.7663 13.92 24.08 13.92Z" fill="#FBAF1D"/>
<path d="M19.6 13.92C22.9137 13.92 25.6 11.2337 25.6 7.92C25.6 4.60629 22.9137 1.92 19.6 1.92C16.2863 1.92 13.6 4.60629 13.6 7.92C13.6 11.2337 16.2863 13.92 19.6 13.92Z" fill="#141414"/>
</g>
<defs>
<clipPath id="clip0_41_3">
<rect width="32" height="16" fill="white"/>
</clipPath>
</defs>
</svg>
