<svg width="32" height="16" viewBox="0 0 32 16" fill="none" xmlns="http://www.w3.org/2000/svg">
<g clip-path="url(#clip0_41_12)">
<path d="M24 0H8C3.58172 0 0 3.58172 0 8C0 12.4183 3.58172 16 8 16H24C28.4183 16 32 12.4183 32 8C32 3.58172 28.4183 0 24 0Z" fill="#EAEAEA"/>
<path d="M2.87999 9.6C3.32181 9.6 3.67999 9.24183 3.67999 8.8C3.67999 8.35817 3.32181 8 2.87999 8C2.43816 8 2.07999 8.35817 2.07999 8.8C2.07999 9.24183 2.43816 9.6 2.87999 9.6Z" fill="#E4E4E4"/>
<path d="M8.07999 14.08C11.3937 14.08 14.08 11.3937 14.08 8.08C14.08 4.76629 11.3937 2.08 8.07999 2.08C4.76628 2.08 2.07999 4.76629 2.07999 8.08C2.07999 11.3937 4.76628 14.08 8.07999 14.08Z" fill="#FBAF1D"/>
</g>
<defs>
<clipPath id="clip0_41_12">
<rect width="32" height="16" fill="white"/>
</clipPath>
</defs>
</svg>
