<svg width="16" height="16" viewBox="0 0 16 16" fill="none" xmlns="http://www.w3.org/2000/svg">
<path d="M6.5 1C9.53757 1 12 3.46243 12 6.5C12 7.74828 11.5826 8.89824 10.8818 9.82129L14.0303 12.9697C14.3231 13.2626 14.3231 13.7374 14.0303 14.0303C13.7374 14.3231 13.2626 14.3231 12.9697 14.0303L9.82129 10.8818C8.89824 11.5826 7.74828 12 6.5 12C3.46243 12 1 9.53757 1 6.5C1 3.46243 3.46243 1 6.5 1ZM6.5 2.75C4.42893 2.75 2.75 4.42893 2.75 6.5C2.75 8.57107 4.42893 10.25 6.5 10.25C8.57107 10.25 10.25 8.57107 10.25 6.5C10.25 4.42893 8.57107 2.75 6.5 2.75Z" fill="#DADADA" fill-opacity="0.85"/>
</svg>
