<svg width="16" height="16" viewBox="0 0 16 16" fill="none" xmlns="http://www.w3.org/2000/svg">
<mask id="path-1-inside-1_17_22" fill="white">
<path d="M6.5 1C9.53757 1 12 3.46243 12 6.5C12 9.53757 9.53757 12 6.5 12C3.46243 12 1 9.53757 1 6.5C1 3.46243 3.46243 1 6.5 1ZM6.59961 2.5C4.39065 2.50021 2.59961 4.29099 2.59961 6.5C2.59961 8.70901 4.39065 10.4998 6.59961 10.5C8.80875 10.5 10.5996 8.70914 10.5996 6.5C10.5996 4.29086 8.80875 2.5 6.59961 2.5Z"/>
</mask>
<path d="M6.5 1V-0.5V-0.5V1ZM12 6.5H13.5V6.5H12ZM6.5 12V13.5V13.5V12ZM1 6.5H-0.5V6.5H1ZM6.59961 2.5V1L6.59947 1L6.59961 2.5ZM6.59961 10.5L6.59947 12H6.59961V10.5ZM6.5 1V2.5C8.70914 2.5 10.5 4.29086 10.5 6.5H12H13.5C13.5 2.63401 10.366 -0.5 6.5 -0.5V1ZM12 6.5H10.5C10.5 8.70914 8.70914 10.5 6.5 10.5V12V13.5C10.366 13.5 13.5 10.366 13.5 6.5H12ZM6.5 12V10.5C4.29086 10.5 2.5 8.70914 2.5 6.5H1H-0.5C-0.5 10.366 2.63401 13.5 6.5 13.5V12ZM1 6.5H2.5C2.5 4.29086 4.29086 2.5 6.5 2.5V1V-0.5C2.63401 -0.5 -0.5 2.63401 -0.5 6.5H1ZM6.59961 2.5L6.59947 1C3.56233 1.00029 1.09961 3.46242 1.09961 6.5H2.59961H4.09961C4.09961 5.11956 5.21897 4.00013 6.59975 4L6.59961 2.5ZM2.59961 6.5H1.09961C1.09961 9.53758 3.56233 11.9997 6.59947 12L6.59961 10.5L6.59975 9C5.21897 8.99987 4.09961 7.88044 4.09961 6.5H2.59961ZM6.59961 10.5V12C9.63718 12 12.0996 9.53757 12.0996 6.5H10.5996H9.09961C9.09961 7.88071 7.98032 9 6.59961 9V10.5ZM10.5996 6.5H12.0996C12.0996 3.46243 9.63718 1 6.59961 1V2.5V4C7.98032 4 9.09961 5.11929 9.09961 6.5H10.5996Z" fill="#141414" fill-opacity="0.95" mask="url(#path-1-inside-1_17_22)"/>
<path d="M10.3 10.3L13.5 13.5" stroke="#141414" stroke-opacity="0.95" stroke-width="1.5" stroke-linecap="round"/>
</svg>
